<svg xmlns="http://www.w3.org/2000/svg" width="1920" height="1080"><path d="M462,1290L-69,1307L702,1300Z" fill="#7c97ab" stroke="#7c97ab" stroke-width="1.51"/><path d="M702,1300L-69,1307L1061,1312Z" fill="#7092a5" stroke="#7092a5" stroke-width="1.51"/><path d="M788,-232L1033,-226L1235,-243Z" fill="#b6e1d9" stroke="#b6e1d9" stroke-width="1.51"/><path d="M263,-260L788,-232L1235,-243Z" fill="#c7e9d3" stroke="#c7e9d3" stroke-width="1.51"/><path d="M1235,-243L1332,-214L1604,-203Z" fill="#a3cdda" stroke="#a3cdda" stroke-width="1.51"/><path d="M1370,1254L1061,1312L1752,1338Z" fill="#2b75ac" stroke="#2b75ac" stroke-width="1.51"/><path d="M263,-260L1235,-243L1931,-258Z" fill="#b1dcdd" stroke="#b1dcdd" stroke-width="1.51"/><path d="M1235,-243L1604,-203L1931,-258Z" fill="#9bbfd4" stroke="#9bbfd4" stroke-width="1.51"/><path d="M2046,76L2075,273L2102,-105Z" fill="#7e97ad" stroke="#7e97ad" stroke-width="1.51"/><path d="M2075,273L2038,378L2110,685Z" fill="#5c8ca6" stroke="#5c8ca6" stroke-width="1.51"/><path d="M2038,378L2046,566L2110,685Z" fill="#4f89a9" stroke="#4f89a9" stroke-width="1.51"/><path d="M1927,998L2051,1126L2132,943Z" fill="#1968a5" stroke="#1968a5" stroke-width="1.51"/><path d="M2086,795L1938,837L2132,943Z" fill="#2975ac" stroke="#2975ac" stroke-width="1.51"/><path d="M2051,1126L2096,1235L2132,943Z" fill="#115d9d" stroke="#115d9d" stroke-width="1.51"/><path d="M2110,685L2086,795L2132,943Z" fill="#2d75aa" stroke="#2d75aa" stroke-width="1.51"/><path d="M1931,-258L2102,-105L2139,-163Z" fill="#8a9dba" stroke="#8a9dba" stroke-width="1.51"/><path d="M2075,273L2110,685L2139,-163Z" fill="#6f90a2" stroke="#6f90a2" stroke-width="1.51"/><path d="M2102,-105L2075,273L2139,-163Z" fill="#8096ae" stroke="#8096ae" stroke-width="1.51"/><path d="M2110,685L2132,943L2139,-163Z" fill="#5687a4" stroke="#5687a4" stroke-width="1.51"/><path d="M1938,837L1927,998L2132,943Z" fill="#2172ac" stroke="#2172ac" stroke-width="1.51"/><path d="M1927,998L1967,1112L2051,1126Z" fill="#1366a6" stroke="#1366a6" stroke-width="1.51"/><path d="M2046,76L1908,282L2075,273Z" fill="#7799ac" stroke="#7799ac" stroke-width="1.51"/><path d="M1902,-43L2046,76L2102,-105Z" fill="#849eb6" stroke="#849eb6" stroke-width="1.51"/><path d="M1920,727L2086,795L2110,685Z" fill="#3580b2" stroke="#3580b2" stroke-width="1.51"/><path d="M2046,566L1920,727L2110,685Z" fill="#4186b1" stroke="#4186b1" stroke-width="1.51"/><path d="M1931,-258L1902,-43L2102,-105Z" fill="#8aa2bf" stroke="#8aa2bf" stroke-width="1.51"/><path d="M2038,378L1916,539L2046,566Z" fill="#5790ad" stroke="#5790ad" stroke-width="1.51"/><path d="M2051,1126L1967,1112L2096,1235Z" fill="#095c9f" stroke="#095c9f" stroke-width="1.51"/><path d="M1967,1112L1918,1298L2096,1235Z" fill="#0a599c" stroke="#0a599c" stroke-width="1.51"/><path d="M1598,1275L1370,1254L1752,1338Z" fill="#1d6ba7" stroke="#1d6ba7" stroke-width="1.51"/><path d="M1920,727L1938,837L2086,795Z" fill="#3080b4" stroke="#3080b4" stroke-width="1.51"/><path d="M1884,59L1908,282L2046,76Z" fill="#7e9fb3" stroke="#7e9fb3" stroke-width="1.51"/><path d="M1908,282L2038,378L2075,273Z" fill="#6e96a8" stroke="#6e96a8" stroke-width="1.51"/><path d="M1896,353L1916,539L2038,378Z" fill="#6296af" stroke="#6296af" stroke-width="1.51"/><path d="M1908,282L1896,353L2038,378Z" fill="#6c9aab" stroke="#6c9aab" stroke-width="1.51"/><path d="M1916,539L1920,727L2046,566Z" fill="#498db3" stroke="#498db3" stroke-width="1.51"/><path d="M1902,-43L1884,59L2046,76Z" fill="#84a2b9" stroke="#84a2b9" stroke-width="1.51"/><path d="M1884,59L1813,269L1908,282Z" fill="#7ba4b6" stroke="#7ba4b6" stroke-width="1.51"/><path d="M1916,539L1776,709L1920,727Z" fill="#4391bc" stroke="#4391bc" stroke-width="1.51"/><path d="M1604,-203L1786,-177L1931,-258Z" fill="#95b3ce" stroke="#95b3ce" stroke-width="1.51"/><path d="M1786,-177L1902,-43L1931,-258Z" fill="#8fabc7" stroke="#8fabc7" stroke-width="1.51"/><path d="M1752,873L1927,998L1938,837Z" fill="#257db7" stroke="#257db7" stroke-width="1.51"/><path d="M1927,998L1785,1169L1967,1112Z" fill="#126bac" stroke="#126bac" stroke-width="1.51"/><path d="M1785,1169L1918,1298L1967,1112Z" fill="#0962a6" stroke="#0962a6" stroke-width="1.51"/><path d="M1478,1251L1370,1254L1598,1275Z" fill="#2574ad" stroke="#2574ad" stroke-width="1.51"/><path d="M1776,54L1813,269L1884,59Z" fill="#83a9bb" stroke="#83a9bb" stroke-width="1.51"/><path d="M1786,-177L1780,-76L1902,-43Z" fill="#8dadc6" stroke="#8dadc6" stroke-width="1.51"/><path d="M1896,353L1767,483L1916,539Z" fill="#5f9cb6" stroke="#5f9cb6" stroke-width="1.51"/><path d="M1752,873L1741,947L1927,998Z" fill="#227eb7" stroke="#227eb7" stroke-width="1.51"/><path d="M1920,727L1776,709L1938,837Z" fill="#338bbd" stroke="#338bbd" stroke-width="1.51"/><path d="M1776,709L1752,873L1938,837Z" fill="#3089be" stroke="#3089be" stroke-width="1.51"/><path d="M1741,947L1785,1169L1927,998Z" fill="#1a75b3" stroke="#1a75b3" stroke-width="1.51"/><path d="M1741,947L1687,1027L1785,1169Z" fill="#1d78b4" stroke="#1d78b4" stroke-width="1.51"/><path d="M1767,483L1776,709L1916,539Z" fill="#4f99bb" stroke="#4f99bb" stroke-width="1.51"/><path d="M1785,1169L1752,1338L1918,1298Z" fill="#0e5fa2" stroke="#0e5fa2" stroke-width="1.51"/><path d="M1762,337L1767,483L1896,353Z" fill="#69a1b5" stroke="#69a1b5" stroke-width="1.51"/><path d="M1776,54L1884,59L1902,-43Z" fill="#87a9bf" stroke="#87a9bf" stroke-width="1.51"/><path d="M1780,-76L1776,54L1902,-43Z" fill="#89acc3" stroke="#89acc3" stroke-width="1.51"/><path d="M1813,269L1896,353L1908,282Z" fill="#72a0b2" stroke="#72a0b2" stroke-width="1.51"/><path d="M1813,269L1762,337L1896,353Z" fill="#71a3b3" stroke="#71a3b3" stroke-width="1.51"/><path d="M1762,337L1673,406L1767,483Z" fill="#69a5b8" stroke="#69a5b8" stroke-width="1.51"/><path d="M1767,483L1631,566L1776,709Z" fill="#519ebe" stroke="#519ebe" stroke-width="1.51"/><path d="M1687,1027L1679,1151L1785,1169Z" fill="#1974b3" stroke="#1974b3" stroke-width="1.51"/><path d="M1679,1151L1752,1338L1785,1169Z" fill="#1369a9" stroke="#1369a9" stroke-width="1.51"/><path d="M1776,54L1646,218L1813,269Z" fill="#80acbb" stroke="#80acbb" stroke-width="1.51"/><path d="M1646,218L1762,337L1813,269Z" fill="#77aab8" stroke="#77aab8" stroke-width="1.51"/><path d="M1679,1151L1598,1275L1752,1338Z" fill="#1869a7" stroke="#1869a7" stroke-width="1.51"/><path d="M1591,73L1646,218L1776,54Z" fill="#87b3c0" stroke="#87b3c0" stroke-width="1.51"/><path d="M1631,566L1595,700L1776,709Z" fill="#499ec3" stroke="#499ec3" stroke-width="1.51"/><path d="M1625,880L1752,873L1776,709Z" fill="#338fc0" stroke="#338fc0" stroke-width="1.51"/><path d="M1595,700L1625,880L1776,709Z" fill="#3a97c5" stroke="#3a97c5" stroke-width="1.51"/><path d="M1604,-55L1776,54L1780,-76Z" fill="#8db3c5" stroke="#8db3c5" stroke-width="1.51"/><path d="M1604,-203L1604,-55L1780,-76Z" fill="#93b7cc" stroke="#93b7cc" stroke-width="1.51"/><path d="M1604,-203L1780,-76L1786,-177Z" fill="#93b5cc" stroke="#93b5cc" stroke-width="1.51"/><path d="M1604,-55L1591,73L1776,54Z" fill="#8cb6c5" stroke="#8cb6c5" stroke-width="1.51"/><path d="M1673,406L1631,566L1767,483Z" fill="#5fa5bc" stroke="#5fa5bc" stroke-width="1.51"/><path d="M1646,218L1673,406L1762,337Z" fill="#74abb7" stroke="#74abb7" stroke-width="1.51"/><path d="M1625,880L1741,947L1752,873Z" fill="#2b88bc" stroke="#2b88bc" stroke-width="1.51"/><path d="M1625,880L1687,1027L1741,947Z" fill="#2684bb" stroke="#2684bb" stroke-width="1.51"/><path d="M1332,-214L1463,-164L1604,-203Z" fill="#9ec7d6" stroke="#9ec7d6" stroke-width="1.51"/><path d="M1540,540L1631,566L1673,406Z" fill="#5fa9bf" stroke="#5fa9bf" stroke-width="1.51"/><path d="M1646,218L1488,259L1673,406Z" fill="#79b2bb" stroke="#79b2bb" stroke-width="1.51"/><path d="M1488,259L1464,360L1673,406Z" fill="#76b4bb" stroke="#76b4bb" stroke-width="1.51"/><path d="M1625,880L1513,961L1687,1027Z" fill="#2988bc" stroke="#2988bc" stroke-width="1.51"/><path d="M1502,1170L1679,1151L1687,1027Z" fill="#1e79b5" stroke="#1e79b5" stroke-width="1.51"/><path d="M1513,961L1502,1170L1687,1027Z" fill="#2582ba" stroke="#2582ba" stroke-width="1.51"/><path d="M1187,1256L1061,1312L1370,1254Z" fill="#3a82b2" stroke="#3a82b2" stroke-width="1.51"/><path d="M1502,1170L1598,1275L1679,1151Z" fill="#1c74b0" stroke="#1c74b0" stroke-width="1.51"/><path d="M1464,360L1540,540L1673,406Z" fill="#69b0be" stroke="#69b0be" stroke-width="1.51"/><path d="M1522,703L1476,827L1595,700Z" fill="#40a1c9" stroke="#40a1c9" stroke-width="1.51"/><path d="M1534,-92L1604,-55L1604,-203Z" fill="#95bdcf" stroke="#95bdcf" stroke-width="1.51"/><path d="M1595,700L1476,827L1625,880Z" fill="#3a99c6" stroke="#3a99c6" stroke-width="1.51"/><path d="M1540,540L1595,700L1631,566Z" fill="#52a5c3" stroke="#52a5c3" stroke-width="1.51"/><path d="M1591,73L1488,259L1646,218Z" fill="#84b7c0" stroke="#84b7c0" stroke-width="1.51"/><path d="M1540,540L1522,703L1595,700Z" fill="#4da6c6" stroke="#4da6c6" stroke-width="1.51"/><path d="M1470,43L1591,73L1604,-55Z" fill="#8fbdc8" stroke="#8fbdc8" stroke-width="1.51"/><path d="M1476,827L1513,961L1625,880Z" fill="#3393c2" stroke="#3393c2" stroke-width="1.51"/><path d="M330,1275L-69,1307L462,1290Z" fill="#809ab0" stroke="#809ab0" stroke-width="1.51"/><path d="M1470,43L1488,259L1591,73Z" fill="#8cbdc4" stroke="#8cbdc4" stroke-width="1.51"/><path d="M1502,1170L1478,1251L1598,1275Z" fill="#2174ae" stroke="#2174ae" stroke-width="1.51"/><path d="M1534,-92L1470,43L1604,-55Z" fill="#93bfcc" stroke="#93bfcc" stroke-width="1.51"/><path d="M1463,-164L1534,-92L1604,-203Z" fill="#99c1d2" stroke="#99c1d2" stroke-width="1.51"/><path d="M1470,43L1350,128L1488,259Z" fill="#8dc2c6" stroke="#8dc2c6" stroke-width="1.51"/><path d="M1303,1024L1502,1170L1513,961Z" fill="#2f8abe" stroke="#2f8abe" stroke-width="1.51"/><path d="M1295,673L1522,703L1540,540Z" fill="#53adc9" stroke="#53adc9" stroke-width="1.51"/><path d="M1349,485L1295,673L1540,540Z" fill="#5fb5c8" stroke="#5fb5c8" stroke-width="1.51"/><path d="M1464,360L1349,485L1540,540Z" fill="#6bb5c2" stroke="#6bb5c2" stroke-width="1.51"/><path d="M1463,-164L1470,43L1534,-92Z" fill="#96c3cf" stroke="#96c3cf" stroke-width="1.51"/><path d="M1303,1024L1281,1122L1502,1170Z" fill="#318bbf" stroke="#318bbf" stroke-width="1.51"/><path d="M1476,827L1357,821L1513,961Z" fill="#3a9ac6" stroke="#3a9ac6" stroke-width="1.51"/><path d="M1357,821L1476,827L1522,703Z" fill="#41a3cb" stroke="#41a3cb" stroke-width="1.51"/><path d="M1295,673L1357,821L1522,703Z" fill="#49abce" stroke="#49abce" stroke-width="1.51"/><path d="M1463,-164L1283,-116L1470,43Z" fill="#9ac9d3" stroke="#9ac9d3" stroke-width="1.51"/><path d="M1357,821L1303,1024L1513,961Z" fill="#3898c5" stroke="#3898c5" stroke-width="1.51"/><path d="M1370,1254L1478,1251L1502,1170Z" fill="#277ab2" stroke="#277ab2" stroke-width="1.51"/><path d="M1281,1122L1370,1254L1502,1170Z" fill="#2c82b8" stroke="#2c82b8" stroke-width="1.51"/><path d="M131,1275L-69,1307L330,1275Z" fill="#839bb4" stroke="#839bb4" stroke-width="1.51"/><path d="M1350,128L1291,239L1488,259Z" fill="#8ac4c6" stroke="#8ac4c6" stroke-width="1.51"/><path d="M1333,344L1464,360L1488,259Z" fill="#7dbdbf" stroke="#7dbdbf" stroke-width="1.51"/><path d="M1291,239L1333,344L1488,259Z" fill="#83c2c3" stroke="#83c2c3" stroke-width="1.51"/><path d="M1333,344L1349,485L1464,360Z" fill="#76bdc3" stroke="#76bdc3" stroke-width="1.51"/><path d="M1283,-116L1350,128L1470,43Z" fill="#97c9cf" stroke="#97c9cf" stroke-width="1.51"/><path d="M1332,-214L1283,-116L1463,-164Z" fill="#a1ced8" stroke="#a1ced8" stroke-width="1.51"/><path d="M838,1274L702,1300L1061,1312Z" fill="#588ca8" stroke="#588ca8" stroke-width="1.51"/><path d="M1225,582L1295,673L1349,485Z" fill="#62bbcc" stroke="#62bbcc" stroke-width="1.51"/><path d="M1283,-116L1192,40L1350,128Z" fill="#9bcfd2" stroke="#9bcfd2" stroke-width="1.51"/><path d="M1238,874L1303,1024L1357,821Z" fill="#40a1ca" stroke="#40a1ca" stroke-width="1.51"/><path d="M1281,1122L1187,1256L1370,1254Z" fill="#3386b9" stroke="#3386b9" stroke-width="1.51"/><path d="M1333,344L1145,353L1349,485Z" fill="#7bc4c6" stroke="#7bc4c6" stroke-width="1.51"/><path d="M1295,673L1238,874L1357,821Z" fill="#49acd0" stroke="#49acd0" stroke-width="1.51"/><path d="M1210,-105L1192,40L1283,-116Z" fill="#a1d4d5" stroke="#a1d4d5" stroke-width="1.51"/><path d="M1145,353L1225,582L1349,485Z" fill="#72c3c9" stroke="#72c3c9" stroke-width="1.51"/><path d="M1165,209L1291,239L1350,128Z" fill="#90ccca" stroke="#90ccca" stroke-width="1.51"/><path d="M1192,40L1165,209L1350,128Z" fill="#98d0cc" stroke="#98d0cc" stroke-width="1.51"/><path d="M1136,677L1238,874L1295,673Z" fill="#52b5d2" stroke="#52b5d2" stroke-width="1.51"/><path d="M1238,874L1182,950L1303,1024Z" fill="#41a1c8" stroke="#41a1c8" stroke-width="1.51"/><path d="M1235,-243L1283,-116L1332,-214Z" fill="#a6d3dc" stroke="#a6d3dc" stroke-width="1.51"/><path d="M1291,239L1145,353L1333,344Z" fill="#85c8c6" stroke="#85c8c6" stroke-width="1.51"/><path d="M1185,1127L1187,1256L1281,1122Z" fill="#3a8dbe" stroke="#3a8dbe" stroke-width="1.51"/><path d="M1235,-243L1210,-105L1283,-116Z" fill="#a5d5db" stroke="#a5d5db" stroke-width="1.51"/><path d="M1165,209L1145,353L1291,239Z" fill="#8dcdc5" stroke="#8dcdc5" stroke-width="1.51"/><path d="M1185,1127L1281,1122L1303,1024Z" fill="#3893c3" stroke="#3893c3" stroke-width="1.51"/><path d="M1182,950L1185,1127L1303,1024Z" fill="#3f9ac4" stroke="#3f9ac4" stroke-width="1.51"/><path d="M1225,582L1136,677L1295,673Z" fill="#5fbacf" stroke="#5fbacf" stroke-width="1.51"/><path d="M1182,950L1050,1045L1185,1127Z" fill="#479cc2" stroke="#479cc2" stroke-width="1.51"/><path d="M1083,-78L1192,40L1210,-105Z" fill="#a4d6d3" stroke="#a4d6d3" stroke-width="1.51"/><path d="M1145,353L988,535L1225,582Z" fill="#78c7c6" stroke="#78c7c6" stroke-width="1.51"/><path d="M1033,-226L1210,-105L1235,-243Z" fill="#acd9da" stroke="#acd9da" stroke-width="1.51"/><path d="M1031,790L1182,950L1238,874Z" fill="#4fabca" stroke="#4fabca" stroke-width="1.51"/><path d="M1136,677L1031,790L1238,874Z" fill="#58b4cf" stroke="#58b4cf" stroke-width="1.51"/><path d="M1033,-226L1083,-78L1210,-105Z" fill="#abdad7" stroke="#abdad7" stroke-width="1.51"/><path d="M988,535L1136,677L1225,582Z" fill="#6bc2ca" stroke="#6bc2ca" stroke-width="1.51"/><path d="M1053,349L988,535L1145,353Z" fill="#85ccc2" stroke="#85ccc2" stroke-width="1.51"/><path d="M1185,1127L1075,1131L1187,1256Z" fill="#418fbc" stroke="#418fbc" stroke-width="1.51"/><path d="M1021,90L1165,209L1192,40Z" fill="#9ed5ca" stroke="#9ed5ca" stroke-width="1.51"/><path d="M1053,349L1145,353L1165,209Z" fill="#8dcec2" stroke="#8dcec2" stroke-width="1.51"/><path d="M1050,1045L1075,1131L1185,1127Z" fill="#4898be" stroke="#4898be" stroke-width="1.51"/><path d="M1075,1131L1061,1312L1187,1256Z" fill="#458bb4" stroke="#458bb4" stroke-width="1.51"/><path d="M1083,-78L1021,90L1192,40Z" fill="#a4d7ce" stroke="#a4d7ce" stroke-width="1.51"/><path d="M1031,790L1050,1045L1182,950Z" fill="#51a8c6" stroke="#51a8c6" stroke-width="1.51"/><path d="M263,-260L606,-189L788,-232Z" fill="#d3eed2" stroke="#d3eed2" stroke-width="1.51"/><path d="M988,535L995,675L1136,677Z" fill="#6ec3ca" stroke="#6ec3ca" stroke-width="1.51"/><path d="M986,250L1053,349L1165,209Z" fill="#93d2c2" stroke="#93d2c2" stroke-width="1.51"/><path d="M1021,90L986,250L1165,209Z" fill="#9cd5c5" stroke="#9cd5c5" stroke-width="1.51"/><path d="M263,-260L468,-192L606,-189Z" fill="#d9f0d4" stroke="#d9f0d4" stroke-width="1.51"/><path d="M1031,790L913,857L1050,1045Z" fill="#5bafc5" stroke="#5bafc5" stroke-width="1.51"/><path d="M995,675L1031,790L1136,677Z" fill="#64bdcd" stroke="#64bdcd" stroke-width="1.51"/><path d="M788,-232L908,-185L1033,-226Z" fill="#bbe4d5" stroke="#bbe4d5" stroke-width="1.51"/><path d="M913,857L891,985L1050,1045Z" fill="#5aaac1" stroke="#5aaac1" stroke-width="1.51"/><path d="M917,354L988,535L1053,349Z" fill="#89d0c0" stroke="#89d0c0" stroke-width="1.51"/><path d="M934,1166L1061,1312L1075,1131Z" fill="#4d91b5" stroke="#4d91b5" stroke-width="1.51"/><path d="M901,-40L1021,90L1083,-78Z" fill="#aadccd" stroke="#aadccd" stroke-width="1.51"/><path d="M1033,-226L908,-185L1083,-78Z" fill="#b2e0d5" stroke="#b2e0d5" stroke-width="1.51"/><path d="M908,-185L901,-40L1083,-78Z" fill="#b1e0d0" stroke="#b1e0d0" stroke-width="1.51"/><path d="M916,192L986,250L1021,90Z" fill="#a0d9c3" stroke="#a0d9c3" stroke-width="1.51"/><path d="M922,128L916,192L1021,90Z" fill="#a5dbc4" stroke="#a5dbc4" stroke-width="1.51"/><path d="M1050,1045L934,1166L1075,1131Z" fill="#509abc" stroke="#509abc" stroke-width="1.51"/><path d="M934,1166L838,1274L1061,1312Z" fill="#538faf" stroke="#538faf" stroke-width="1.51"/><path d="M986,250L917,354L1053,349Z" fill="#93d4be" stroke="#93d4be" stroke-width="1.51"/><path d="M891,985L934,1166L1050,1045Z" fill="#56a1bd" stroke="#56a1bd" stroke-width="1.51"/><path d="M901,-40L922,128L1021,90Z" fill="#aaddc8" stroke="#aaddc8" stroke-width="1.51"/><path d="M995,675L847,733L1031,790Z" fill="#69c0cb" stroke="#69c0cb" stroke-width="1.51"/><path d="M847,733L913,857L1031,790Z" fill="#67bcc9" stroke="#67bcc9" stroke-width="1.51"/><path d="M988,535L877,574L995,675Z" fill="#77c8c6" stroke="#77c8c6" stroke-width="1.51"/><path d="M917,354L877,574L988,535Z" fill="#85cfc1" stroke="#85cfc1" stroke-width="1.51"/><path d="M877,574L847,733L995,675Z" fill="#75c6c7" stroke="#75c6c7" stroke-width="1.51"/><path d="M916,192L917,354L986,250Z" fill="#9bd7bf" stroke="#9bd7bf" stroke-width="1.51"/><path d="M916,192L715,203L917,354Z" fill="#a3dabd" stroke="#a3dabd" stroke-width="1.51"/><path d="M735,428L877,574L917,354Z" fill="#8fd3be" stroke="#8fd3be" stroke-width="1.51"/><path d="M901,-40L790,141L922,128Z" fill="#afdfc5" stroke="#afdfc5" stroke-width="1.51"/><path d="M891,985L691,1159L934,1166Z" fill="#61a1b8" stroke="#61a1b8" stroke-width="1.51"/><path d="M691,1159L838,1274L934,1166Z" fill="#5f98b1" stroke="#5f98b1" stroke-width="1.51"/><path d="M788,-232L901,-40L908,-185Z" fill="#bae4d0" stroke="#bae4d0" stroke-width="1.51"/><path d="M721,942L891,985L913,857Z" fill="#68b1c0" stroke="#68b1c0" stroke-width="1.51"/><path d="M790,141L715,203L916,192Z" fill="#acdebf" stroke="#acdebf" stroke-width="1.51"/><path d="M715,203L735,428L917,354Z" fill="#a0d9b9" stroke="#a0d9b9" stroke-width="1.51"/><path d="M790,141L916,192L922,128Z" fill="#a9ddc2" stroke="#a9ddc2" stroke-width="1.51"/><path d="M735,428L714,506L877,574Z" fill="#8ed2be" stroke="#8ed2be" stroke-width="1.51"/><path d="M680,-13L790,141L901,-40Z" fill="#b7e3c5" stroke="#b7e3c5" stroke-width="1.51"/><path d="M847,733L774,742L913,857Z" fill="#71bfc7" stroke="#71bfc7" stroke-width="1.51"/><path d="M721,942L691,1159L891,985Z" fill="#6aaaba" stroke="#6aaaba" stroke-width="1.51"/><path d="M788,-232L680,-13L901,-40Z" fill="#bde5cc" stroke="#bde5cc" stroke-width="1.51"/><path d="M774,742L721,942L913,857Z" fill="#70bac3" stroke="#70bac3" stroke-width="1.51"/><path d="M680,842L721,942L774,742Z" fill="#77bcc1" stroke="#77bcc1" stroke-width="1.51"/><path d="M774,742L847,733L877,574Z" fill="#7ac7c7" stroke="#7ac7c7" stroke-width="1.51"/><path d="M714,506L774,742L877,574Z" fill="#84cdc3" stroke="#84cdc3" stroke-width="1.51"/><path d="M691,1159L702,1300L838,1274Z" fill="#6595ab" stroke="#6595ab" stroke-width="1.51"/><path d="M714,506L600,652L774,742Z" fill="#89cec1" stroke="#89cec1" stroke-width="1.51"/><path d="M606,-189L680,-13L788,-232Z" fill="#c6e9cc" stroke="#c6e9cc" stroke-width="1.51"/><path d="M715,203L551,366L735,428Z" fill="#a8ddb5" stroke="#a8ddb5" stroke-width="1.51"/><path d="M680,-13L715,203L790,141Z" fill="#b7e3c0" stroke="#b7e3c0" stroke-width="1.51"/><path d="M680,-13L543,105L715,203Z" fill="#bde5bf" stroke="#bde5bf" stroke-width="1.51"/><path d="M568,1114L691,1159L721,942Z" fill="#72a8b6" stroke="#72a8b6" stroke-width="1.51"/><path d="M600,652L680,842L774,742Z" fill="#81c7c5" stroke="#81c7c5" stroke-width="1.51"/><path d="M618,-20L543,105L680,-13Z" fill="#c2e7c3" stroke="#c2e7c3" stroke-width="1.51"/><path d="M606,-189L618,-20L680,-13Z" fill="#c6e9c8" stroke="#c6e9c8" stroke-width="1.51"/><path d="M595,1246L462,1290L702,1300Z" fill="#6f94a7" stroke="#6f94a7" stroke-width="1.51"/><path d="M691,1159L595,1246L702,1300Z" fill="#6c98aa" stroke="#6c98aa" stroke-width="1.51"/><path d="M563,539L600,652L714,506Z" fill="#93d4bf" stroke="#93d4bf" stroke-width="1.51"/><path d="M533,290L551,366L715,203Z" fill="#b0e0b9" stroke="#b0e0b9" stroke-width="1.51"/><path d="M579,934L568,1114L721,942Z" fill="#78b0ba" stroke="#78b0ba" stroke-width="1.51"/><path d="M551,366L714,506L735,428Z" fill="#9ed9b9" stroke="#9ed9b9" stroke-width="1.51"/><path d="M600,652L549,837L680,842Z" fill="#84c6c5" stroke="#84c6c5" stroke-width="1.51"/><path d="M551,366L563,539L714,506Z" fill="#9ed8bc" stroke="#9ed8bc" stroke-width="1.51"/><path d="M680,842L579,934L721,942Z" fill="#79b8bd" stroke="#79b8bd" stroke-width="1.51"/><path d="M543,105L533,290L715,203Z" fill="#b8e3bb" stroke="#b8e3bb" stroke-width="1.51"/><path d="M568,1114L595,1246L691,1159Z" fill="#719fb1" stroke="#719fb1" stroke-width="1.51"/><path d="M549,837L579,934L680,842Z" fill="#7fbdc0" stroke="#7fbdc0" stroke-width="1.51"/><path d="M453,947L568,1114L579,934Z" fill="#7db2bc" stroke="#7db2bc" stroke-width="1.51"/><path d="M469,680L549,837L600,652Z" fill="#8dccc7" stroke="#8dccc7" stroke-width="1.51"/><path d="M438,-27L543,105L618,-20Z" fill="#c7e9c6" stroke="#c7e9c6" stroke-width="1.51"/><path d="M606,-189L468,-192L618,-20Z" fill="#cdeccd" stroke="#cdeccd" stroke-width="1.51"/><path d="M468,-192L438,-27L618,-20Z" fill="#cdeccc" stroke="#cdeccc" stroke-width="1.51"/><path d="M426,197L533,290L543,105Z" fill="#bee5be" stroke="#bee5be" stroke-width="1.51"/><path d="M428,425L444,507L551,366Z" fill="#aaddbe" stroke="#aaddbe" stroke-width="1.51"/><path d="M551,366L444,507L563,539Z" fill="#a3dbbe" stroke="#a3dbbe" stroke-width="1.51"/><path d="M453,947L482,1128L568,1114Z" fill="#7dacba" stroke="#7dacba" stroke-width="1.51"/><path d="M568,1114L482,1128L595,1246Z" fill="#76a2b4" stroke="#76a2b4" stroke-width="1.51"/><path d="M563,539L469,680L600,652Z" fill="#94d2c3" stroke="#94d2c3" stroke-width="1.51"/><path d="M482,1128L462,1290L595,1246Z" fill="#769daf" stroke="#769daf" stroke-width="1.51"/><path d="M549,837L453,947L579,934Z" fill="#82bbc0" stroke="#82bbc0" stroke-width="1.51"/><path d="M469,680L435,849L549,837Z" fill="#8cc7c7" stroke="#8cc7c7" stroke-width="1.51"/><path d="M435,849L453,947L549,837Z" fill="#87bfc3" stroke="#87bfc3" stroke-width="1.51"/><path d="M444,507L469,680L563,539Z" fill="#9bd6c3" stroke="#9bd6c3" stroke-width="1.51"/><path d="M438,-27L403,84L543,105Z" fill="#caeac6" stroke="#caeac6" stroke-width="1.51"/><path d="M533,290L428,425L551,366Z" fill="#afe0ba" stroke="#afe0ba" stroke-width="1.51"/><path d="M403,84L426,197L543,105Z" fill="#c6e9c2" stroke="#c6e9c2" stroke-width="1.51"/><path d="M323,358L428,425L533,290Z" fill="#b4e2bc" stroke="#b4e2bc" stroke-width="1.51"/><path d="M426,197L323,358L533,290Z" fill="#bbe5bd" stroke="#bbe5bd" stroke-width="1.51"/><path d="M-211,-241L12,-193L263,-260Z" fill="#eaf7e4" stroke="#eaf7e4" stroke-width="1.51"/><path d="M251,944L322,1190L453,947Z" fill="#88b3c0" stroke="#88b3c0" stroke-width="1.51"/><path d="M322,1190L330,1275L462,1290Z" fill="#7e9caf" stroke="#7e9caf" stroke-width="1.51"/><path d="M254,-47L438,-27L468,-192Z" fill="#d5efd0" stroke="#d5efd0" stroke-width="1.51"/><path d="M235,686L435,849L469,680Z" fill="#96cfcc" stroke="#96cfcc" stroke-width="1.51"/><path d="M444,507L327,551L469,680Z" fill="#a0d8c5" stroke="#a0d8c5" stroke-width="1.51"/><path d="M322,1190L462,1290L482,1128Z" fill="#7da0b4" stroke="#7da0b4" stroke-width="1.51"/><path d="M453,947L322,1190L482,1128Z" fill="#81acbb" stroke="#81acbb" stroke-width="1.51"/><path d="M263,-260L254,-47L468,-192Z" fill="#dcf2d5" stroke="#dcf2d5" stroke-width="1.51"/><path d="M327,551L235,686L469,680Z" fill="#9fd5c9" stroke="#9fd5c9" stroke-width="1.51"/><path d="M235,686L259,871L435,849Z" fill="#94c9cc" stroke="#94c9cc" stroke-width="1.51"/><path d="M435,849L259,871L453,947Z" fill="#8cc0c5" stroke="#8cc0c5" stroke-width="1.51"/><path d="M259,871L251,944L453,947Z" fill="#8dbec5" stroke="#8dbec5" stroke-width="1.51"/><path d="M276,192L323,358L426,197Z" fill="#c2e7c1" stroke="#c2e7c1" stroke-width="1.51"/><path d="M281,48L403,84L438,-27Z" fill="#d0edc9" stroke="#d0edc9" stroke-width="1.51"/><path d="M428,425L327,551L444,507Z" fill="#a8dcc2" stroke="#a8dcc2" stroke-width="1.51"/><path d="M403,84L276,192L426,197Z" fill="#c9eac4" stroke="#c9eac4" stroke-width="1.51"/><path d="M254,-47L281,48L438,-27Z" fill="#d4eecd" stroke="#d4eecd" stroke-width="1.51"/><path d="M323,358L327,551L428,425Z" fill="#afe0c1" stroke="#afe0c1" stroke-width="1.51"/><path d="M281,48L276,192L403,84Z" fill="#cfecc7" stroke="#cfecc7" stroke-width="1.51"/><path d="M235,686L167,736L259,871Z" fill="#9acfd1" stroke="#9acfd1" stroke-width="1.51"/><path d="M180,-198L254,-47L263,-260Z" fill="#e0f3d9" stroke="#e0f3d9" stroke-width="1.51"/><path d="M251,944L132,997L322,1190Z" fill="#8ab3c3" stroke="#8ab3c3" stroke-width="1.51"/><path d="M132,997L123,1175L322,1190Z" fill="#88acc1" stroke="#88acc1" stroke-width="1.51"/><path d="M276,192L185,284L323,358Z" fill="#c3e8c2" stroke="#c3e8c2" stroke-width="1.51"/><path d="M323,358L121,334L327,551Z" fill="#b6e2c4" stroke="#b6e2c4" stroke-width="1.51"/><path d="M121,334L94,570L327,551Z" fill="#b1e0c9" stroke="#b1e0c9" stroke-width="1.51"/><path d="M322,1190L131,1275L330,1275Z" fill="#819fb4" stroke="#819fb4" stroke-width="1.51"/><path d="M185,284L121,334L323,358Z" fill="#c0e7c3" stroke="#c0e7c3" stroke-width="1.51"/><path d="M94,570L235,686L327,551Z" fill="#a6d9cc" stroke="#a6d9cc" stroke-width="1.51"/><path d="M123,1175L131,1275L322,1190Z" fill="#85a2ba" stroke="#85a2ba" stroke-width="1.51"/><path d="M12,-193L180,-198L263,-260Z" fill="#e5f5de" stroke="#e5f5de" stroke-width="1.51"/><path d="M254,-47L162,-25L281,48Z" fill="#d7efd0" stroke="#d7efd0" stroke-width="1.51"/><path d="M162,-25L118,65L281,48Z" fill="#d7f0d0" stroke="#d7f0d0" stroke-width="1.51"/><path d="M118,65L276,192L281,48Z" fill="#d2eecb" stroke="#d2eecb" stroke-width="1.51"/><path d="M180,-198L162,-25L254,-47Z" fill="#dcf1d6" stroke="#dcf1d6" stroke-width="1.51"/><path d="M118,65L185,284L276,192Z" fill="#cdebc9" stroke="#cdebc9" stroke-width="1.51"/><path d="M167,736L95,826L259,871Z" fill="#98cbd0" stroke="#98cbd0" stroke-width="1.51"/><path d="M95,826L132,997L251,944Z" fill="#92c0cb" stroke="#92c0cb" stroke-width="1.51"/><path d="M95,826L251,944L259,871Z" fill="#94c3cc" stroke="#94c3cc" stroke-width="1.51"/><path d="M118,65L10,201L185,284Z" fill="#d0edcc" stroke="#d0edcc" stroke-width="1.51"/><path d="M94,570L167,736L235,686Z" fill="#a3d6d0" stroke="#a3d6d0" stroke-width="1.51"/><path d="M29,548L94,570L121,334Z" fill="#b5e2cc" stroke="#b5e2cc" stroke-width="1.51"/><path d="M36,-34L162,-25L180,-198Z" fill="#dff2d9" stroke="#dff2d9" stroke-width="1.51"/><path d="M12,-193L36,-34L180,-198Z" fill="#e3f5dd" stroke="#e3f5dd" stroke-width="1.51"/><path d="M10,201L121,334L185,284Z" fill="#c8eac9" stroke="#c8eac9" stroke-width="1.51"/><path d="M6,108L10,201L118,65Z" fill="#d7efd0" stroke="#d7efd0" stroke-width="1.51"/><path d="M-46,386L29,548L121,334Z" fill="#bde5cc" stroke="#bde5cc" stroke-width="1.51"/><path d="M-42,1163L123,1175L132,997Z" fill="#8cafc6" stroke="#8cafc6" stroke-width="1.51"/><path d="M-62,678L95,826L167,736Z" fill="#a0d3d7" stroke="#a0d3d7" stroke-width="1.51"/><path d="M94,570L-62,678L167,736Z" fill="#a7d8d4" stroke="#a7d8d4" stroke-width="1.51"/><path d="M95,826L-28,981L132,997Z" fill="#95c0ce" stroke="#95c0ce" stroke-width="1.51"/><path d="M-28,981L-42,1163L132,997Z" fill="#91b5cb" stroke="#91b5cb" stroke-width="1.51"/><path d="M36,-34L118,65L162,-25Z" fill="#dbf1d5" stroke="#dbf1d5" stroke-width="1.51"/><path d="M-62,678L-27,817L95,826Z" fill="#a1d1d8" stroke="#a1d1d8" stroke-width="1.51"/><path d="M123,1175L-42,1163L131,1275Z" fill="#89a5bf" stroke="#89a5bf" stroke-width="1.51"/><path d="M-42,1163L-69,1307L131,1275Z" fill="#89a1bd" stroke="#89a1bd" stroke-width="1.51"/><path d="M29,548L-62,678L94,570Z" fill="#addcd3" stroke="#addcd3" stroke-width="1.51"/><path d="M-27,817L-28,981L95,826Z" fill="#9ac6d3" stroke="#9ac6d3" stroke-width="1.51"/><path d="M10,201L-46,386L121,334Z" fill="#c8eaca" stroke="#c8eaca" stroke-width="1.51"/><path d="M36,-34L6,108L118,65Z" fill="#dbf1d4" stroke="#dbf1d4" stroke-width="1.51"/><path d="M-144,1095L-42,1163L-28,981Z" fill="#93b4cc" stroke="#93b4cc" stroke-width="1.51"/><path d="M-158,345L-46,386L10,201Z" fill="#cbebcd" stroke="#cbebcd" stroke-width="1.51"/><path d="M-46,386L-128,499L29,548Z" fill="#bae4d1" stroke="#bae4d1" stroke-width="1.51"/><path d="M12,-193L-127,-17L36,-34Z" fill="#e4f5de" stroke="#e4f5de" stroke-width="1.51"/><path d="M-127,-17L6,108L36,-34Z" fill="#dff3d9" stroke="#dff3d9" stroke-width="1.51"/><path d="M-128,499L-62,678L29,548Z" fill="#b2dfd5" stroke="#b2dfd5" stroke-width="1.51"/><path d="M-128,499L-129,664L-62,678Z" fill="#b1ddd8" stroke="#b1ddd8" stroke-width="1.51"/><path d="M-144,815L-28,981L-27,817Z" fill="#9dc8d5" stroke="#9dc8d5" stroke-width="1.51"/><path d="M-127,-17L-181,83L6,108Z" fill="#e0f3d9" stroke="#e0f3d9" stroke-width="1.51"/><path d="M-181,83L-190,208L6,108Z" fill="#ddf2d6" stroke="#ddf2d6" stroke-width="1.51"/><path d="M-190,208L-158,345L10,201Z" fill="#d2eed1" stroke="#d2eed1" stroke-width="1.51"/><path d="M6,108L-190,208L10,201Z" fill="#d7f0d2" stroke="#d7f0d2" stroke-width="1.51"/><path d="M-211,-241L-127,-17L12,-193Z" fill="#ebf7e4" stroke="#ebf7e4" stroke-width="1.51"/><path d="M-198,1258L-69,1307L-42,1163Z" fill="#8ea3c0" stroke="#8ea3c0" stroke-width="1.51"/><path d="M-144,815L-219,964L-28,981Z" fill="#9dc4d5" stroke="#9dc4d5" stroke-width="1.51"/><path d="M-219,964L-144,1095L-28,981Z" fill="#98bbd1" stroke="#98bbd1" stroke-width="1.51"/><path d="M-62,678L-144,815L-27,817Z" fill="#a4d2db" stroke="#a4d2db" stroke-width="1.51"/><path d="M-129,664L-144,815L-62,678Z" fill="#a9d7dc" stroke="#a9d7dc" stroke-width="1.51"/><path d="M-158,345L-128,499L-46,386Z" fill="#c4e8d1" stroke="#c4e8d1" stroke-width="1.51"/><path d="M-144,1095L-198,1258L-42,1163Z" fill="#91abc9" stroke="#91abc9" stroke-width="1.51"/><path d="M-158,345L-219,964L-129,664Z" fill="#b0dcdc" stroke="#b0dcdc" stroke-width="1.51"/><path d="M-158,345L-129,664L-128,499Z" fill="#bbe4d5" stroke="#bbe4d5" stroke-width="1.51"/><path d="M-211,-241L-181,83L-127,-17Z" fill="#e8f6e2" stroke="#e8f6e2" stroke-width="1.51"/><path d="M-219,964L-144,815L-129,664Z" fill="#a5cfdc" stroke="#a5cfdc" stroke-width="1.51"/><path d="M-190,208L-219,964L-158,345Z" fill="#bde5d7" stroke="#bde5d7" stroke-width="1.51"/><path d="M-219,964L-198,1258L-144,1095Z" fill="#97b3cf" stroke="#97b3cf" stroke-width="1.51"/><path d="M-211,-241L-190,208L-181,83Z" fill="#e5f5df" stroke="#e5f5df" stroke-width="1.51"/><path d="M-211,-241L-219,964L-190,208Z" fill="#d0edd2" stroke="#d0edd2" stroke-width="1.51"/></svg>