<svg xmlns="http://www.w3.org/2000/svg" width="1920" height="1080"><path d="M412,1347L-152,1349L660,1376Z" fill="#6f83b0" stroke="#6f83b0" stroke-width="1.51"/><path d="M-148,-254L767,-219L1030,-292Z" fill="#cce2f0" stroke="#cce2f0" stroke-width="1.51"/><path d="M797,1361L660,1376L1275,1394Z" fill="#446fa2" stroke="#446fa2" stroke-width="1.51"/><path d="M1030,-292L1254,-249L1921,-295Z" fill="#9fbedf" stroke="#9fbedf" stroke-width="1.51"/><path d="M1447,1348L1275,1394L2089,1342Z" fill="#185393" stroke="#185393" stroke-width="1.51"/><path d="M1626,1300L1447,1348L2089,1342Z" fill="#135194" stroke="#135194" stroke-width="1.51"/><path d="M2118,60L2149,217L2160,-129Z" fill="#768ab8" stroke="#768ab8" stroke-width="1.51"/><path d="M2160,-129L2149,217L2225,350Z" fill="#6f85b3" stroke="#6f85b3" stroke-width="1.51"/><path d="M2208,945L2122,1121L2237,1212Z" fill="#0f4c90" stroke="#0f4c90" stroke-width="1.51"/><path d="M2086,537L1955,677L2258,658Z" fill="#3a71ab" stroke="#3a71ab" stroke-width="1.51"/><path d="M1955,677L2085,892L2258,658Z" fill="#2c6aa7" stroke="#2c6aa7" stroke-width="1.51"/><path d="M2201,506L2086,537L2258,658Z" fill="#3e70a7" stroke="#3e70a7" stroke-width="1.51"/><path d="M2085,892L2208,945L2258,658Z" fill="#245f9c" stroke="#245f9c" stroke-width="1.51"/><path d="M2225,350L2201,506L2258,658Z" fill="#4571a5" stroke="#4571a5" stroke-width="1.51"/><path d="M2208,945L2237,1212L2258,658Z" fill="#195494" stroke="#195494" stroke-width="1.51"/><path d="M2064,1061L2122,1121L2208,945Z" fill="#125297" stroke="#125297" stroke-width="1.51"/><path d="M2086,537L2201,506L2225,350Z" fill="#4c77aa" stroke="#4c77aa" stroke-width="1.51"/><path d="M2122,1121L2089,1342L2237,1212Z" fill="#094488" stroke="#094488" stroke-width="1.51"/><path d="M2149,217L1922,390L2225,350Z" fill="#6084b4" stroke="#6084b4" stroke-width="1.51"/><path d="M1922,390L2086,537L2225,350Z" fill="#537eb3" stroke="#537eb3" stroke-width="1.51"/><path d="M2085,892L2064,1061L2208,945Z" fill="#17599c" stroke="#17599c" stroke-width="1.51"/><path d="M1254,-249L1616,-182L1921,-295Z" fill="#96b2d9" stroke="#96b2d9" stroke-width="1.51"/><path d="M1849,1227L1626,1300L2089,1342Z" fill="#0e4d93" stroke="#0e4d93" stroke-width="1.51"/><path d="M1895,219L1922,390L2149,217Z" fill="#678bbd" stroke="#678bbd" stroke-width="1.51"/><path d="M2118,60L2015,125L2149,217Z" fill="#728aba" stroke="#728aba" stroke-width="1.51"/><path d="M1921,-115L2118,60L2160,-129Z" fill="#7f92c0" stroke="#7f92c0" stroke-width="1.51"/><path d="M1921,-295L1921,-115L2160,-129Z" fill="#889ac7" stroke="#889ac7" stroke-width="1.51"/><path d="M1849,1227L2089,1342L2122,1121Z" fill="#094a92" stroke="#094a92" stroke-width="1.51"/><path d="M2015,125L1895,219L2149,217Z" fill="#6f8dbe" stroke="#6f8dbe" stroke-width="1.51"/><path d="M1921,-115L2015,125L2118,60Z" fill="#7b92c2" stroke="#7b92c2" stroke-width="1.51"/><path d="M2064,1061L1849,1227L2122,1121Z" fill="#0c519a" stroke="#0c519a" stroke-width="1.51"/><path d="M1955,677L1847,718L2085,892Z" fill="#2b70b0" stroke="#2b70b0" stroke-width="1.51"/><path d="M1847,718L1823,959L2085,892Z" fill="#246bae" stroke="#246bae" stroke-width="1.51"/><path d="M1823,959L2064,1061L2085,892Z" fill="#175fa6" stroke="#175fa6" stroke-width="1.51"/><path d="M1814,1128L1849,1227L2064,1061Z" fill="#0e56a0" stroke="#0e56a0" stroke-width="1.51"/><path d="M1848,580L1955,677L2086,537Z" fill="#3f7ab6" stroke="#3f7ab6" stroke-width="1.51"/><path d="M1922,390L1848,580L2086,537Z" fill="#4b81ba" stroke="#4b81ba" stroke-width="1.51"/><path d="M1823,959L1814,1128L2064,1061Z" fill="#155da5" stroke="#155da5" stroke-width="1.51"/><path d="M1895,219L1857,278L1922,390Z" fill="#678fc2" stroke="#678fc2" stroke-width="1.51"/><path d="M1921,-115L1757,-41L2015,125Z" fill="#809aca" stroke="#809aca" stroke-width="1.51"/><path d="M1757,-41L1895,219L2015,125Z" fill="#7a96c8" stroke="#7a96c8" stroke-width="1.51"/><path d="M1818,-180L1921,-115L1921,-295Z" fill="#8ca1ce" stroke="#8ca1ce" stroke-width="1.51"/><path d="M1848,580L1847,718L1955,677Z" fill="#3a7ab7" stroke="#3a7ab7" stroke-width="1.51"/><path d="M1818,-180L1757,-41L1921,-115Z" fill="#88a1ce" stroke="#88a1ce" stroke-width="1.51"/><path d="M1616,-182L1818,-180L1921,-295Z" fill="#90a7d2" stroke="#90a7d2" stroke-width="1.51"/><path d="M1857,278L1576,383L1922,390Z" fill="#6392c5" stroke="#6392c5" stroke-width="1.51"/><path d="M1576,383L1848,580L1922,390Z" fill="#558dc2" stroke="#558dc2" stroke-width="1.51"/><path d="M-148,-254L160,-180L767,-219Z" fill="#dbe8f6" stroke="#dbe8f6" stroke-width="1.51"/><path d="M1709,694L1823,959L1847,718Z" fill="#2d76b5" stroke="#2d76b5" stroke-width="1.51"/><path d="M1604,234L1857,278L1895,219Z" fill="#6f97c8" stroke="#6f97c8" stroke-width="1.51"/><path d="M1757,-41L1604,234L1895,219Z" fill="#7a9dcc" stroke="#7a9dcc" stroke-width="1.51"/><path d="M1705,1096L1814,1128L1823,959Z" fill="#1862a9" stroke="#1862a9" stroke-width="1.51"/><path d="M1709,694L1847,718L1848,580Z" fill="#3a7eba" stroke="#3a7eba" stroke-width="1.51"/><path d="M1576,383L1596,583L1848,580Z" fill="#4e8ec4" stroke="#4e8ec4" stroke-width="1.51"/><path d="M1604,234L1576,383L1857,278Z" fill="#6b9aca" stroke="#6b9aca" stroke-width="1.51"/><path d="M1709,694L1518,838L1823,959Z" fill="#2c78b9" stroke="#2c78b9" stroke-width="1.51"/><path d="M1814,1128L1705,1096L1849,1227Z" fill="#125ba4" stroke="#125ba4" stroke-width="1.51"/><path d="M1705,1096L1626,1300L1849,1227Z" fill="#135aa1" stroke="#135aa1" stroke-width="1.51"/><path d="M1596,583L1709,694L1848,580Z" fill="#4285bf" stroke="#4285bf" stroke-width="1.51"/><path d="M1533,27L1604,234L1757,-41Z" fill="#82a5d3" stroke="#82a5d3" stroke-width="1.51"/><path d="M1616,-182L1757,-41L1818,-180Z" fill="#8ca7d3" stroke="#8ca7d3" stroke-width="1.51"/><path d="M1556,986L1705,1096L1823,959Z" fill="#1d6ab0" stroke="#1d6ab0" stroke-width="1.51"/><path d="M1518,838L1556,986L1823,959Z" fill="#2573b6" stroke="#2573b6" stroke-width="1.51"/><path d="M1616,-182L1533,27L1757,-41Z" fill="#8aaad5" stroke="#8aaad5" stroke-width="1.51"/><path d="M1254,-249L1469,-143L1616,-182Z" fill="#98b9dc" stroke="#98b9dc" stroke-width="1.51"/><path d="M1509,-104L1533,27L1616,-182Z" fill="#8eafd8" stroke="#8eafd8" stroke-width="1.51"/><path d="M1408,1136L1626,1300L1705,1096Z" fill="#1b63a9" stroke="#1b63a9" stroke-width="1.51"/><path d="M1556,986L1408,1136L1705,1096Z" fill="#216cb1" stroke="#216cb1" stroke-width="1.51"/><path d="M1596,583L1518,838L1709,694Z" fill="#3a85c0" stroke="#3a85c0" stroke-width="1.51"/><path d="M1350,665L1518,838L1596,583Z" fill="#418cc3" stroke="#418cc3" stroke-width="1.51"/><path d="M1576,383L1347,561L1596,583Z" fill="#5597ca" stroke="#5597ca" stroke-width="1.51"/><path d="M1533,27L1471,108L1604,234Z" fill="#81a9d4" stroke="#81a9d4" stroke-width="1.51"/><path d="M1408,1136L1447,1348L1626,1300Z" fill="#2060a2" stroke="#2060a2" stroke-width="1.51"/><path d="M1399,305L1576,383L1604,234Z" fill="#6fa2ce" stroke="#6fa2ce" stroke-width="1.51"/><path d="M1469,-143L1509,-104L1616,-182Z" fill="#92b2da" stroke="#92b2da" stroke-width="1.51"/><path d="M1471,108L1399,305L1604,234Z" fill="#79a7d2" stroke="#79a7d2" stroke-width="1.51"/><path d="M1347,561L1350,665L1596,583Z" fill="#4d95c8" stroke="#4d95c8" stroke-width="1.51"/><path d="M1399,305L1347,561L1576,383Z" fill="#64a0cd" stroke="#64a0cd" stroke-width="1.51"/><path d="M1518,838L1276,1110L1556,986Z" fill="#2b78b9" stroke="#2b78b9" stroke-width="1.51"/><path d="M1276,1110L1408,1136L1556,986Z" fill="#2a73b4" stroke="#2a73b4" stroke-width="1.51"/><path d="M1469,-143L1471,108L1509,-104Z" fill="#8eb1d9" stroke="#8eb1d9" stroke-width="1.51"/><path d="M1180,920L1276,1110L1518,838Z" fill="#3281bd" stroke="#3281bd" stroke-width="1.51"/><path d="M1509,-104L1471,108L1533,27Z" fill="#8aaed7" stroke="#8aaed7" stroke-width="1.51"/><path d="M1469,-143L1229,-117L1471,108Z" fill="#91b6db" stroke="#91b6db" stroke-width="1.51"/><path d="M1350,665L1180,920L1518,838Z" fill="#3c8bc3" stroke="#3c8bc3" stroke-width="1.51"/><path d="M1297,171L1399,305L1471,108Z" fill="#7fadd6" stroke="#7fadd6" stroke-width="1.51"/><path d="M160,-180L479,-158L767,-219Z" fill="#cde1f1" stroke="#cde1f1" stroke-width="1.51"/><path d="M1226,394L1347,561L1399,305Z" fill="#67a6d0" stroke="#67a6d0" stroke-width="1.51"/><path d="M1408,1136L1275,1394L1447,1348Z" fill="#2663a2" stroke="#2663a2" stroke-width="1.51"/><path d="M1229,-117L1297,171L1471,108Z" fill="#8db6db" stroke="#8db6db" stroke-width="1.51"/><path d="M986,1310L797,1361L1275,1394Z" fill="#3c6da2" stroke="#3c6da2" stroke-width="1.51"/><path d="M1254,-249L1229,-117L1469,-143Z" fill="#9bbee0" stroke="#9bbee0" stroke-width="1.51"/><path d="M1276,1110L1275,1394L1408,1136Z" fill="#2a6dac" stroke="#2a6dac" stroke-width="1.51"/><path d="M1133,800L1180,920L1309,654Z" fill="#4692c7" stroke="#4692c7" stroke-width="1.51"/><path d="M1309,654L1180,920L1350,665Z" fill="#4493c7" stroke="#4493c7" stroke-width="1.51"/><path d="M1297,171L1226,394L1399,305Z" fill="#78aed4" stroke="#78aed4" stroke-width="1.51"/><path d="M1123,290L1226,394L1297,171Z" fill="#7db2d7" stroke="#7db2d7" stroke-width="1.51"/><path d="M1280,625L1309,654L1347,561Z" fill="#509acb" stroke="#509acb" stroke-width="1.51"/><path d="M1226,394L1280,625L1347,561Z" fill="#5aa1ce" stroke="#5aa1ce" stroke-width="1.51"/><path d="M1347,561L1309,654L1350,665Z" fill="#4e98ca" stroke="#4e98ca" stroke-width="1.51"/><path d="M1229,-117L1049,161L1297,171Z" fill="#92bbde" stroke="#92bbde" stroke-width="1.51"/><path d="M1025,-78L1049,161L1229,-117Z" fill="#9bc2e2" stroke="#9bc2e2" stroke-width="1.51"/><path d="M986,1310L1275,1394L1276,1110Z" fill="#346da9" stroke="#346da9" stroke-width="1.51"/><path d="M1226,394L1026,454L1280,625Z" fill="#65a8d3" stroke="#65a8d3" stroke-width="1.51"/><path d="M1280,625L1133,800L1309,654Z" fill="#4c98c9" stroke="#4c98c9" stroke-width="1.51"/><path d="M1049,161L1123,290L1297,171Z" fill="#88b8db" stroke="#88b8db" stroke-width="1.51"/><path d="M1180,920L967,1039L1276,1110Z" fill="#3d83bd" stroke="#3d83bd" stroke-width="1.51"/><path d="M967,1039L986,1310L1276,1110Z" fill="#3e7bb7" stroke="#3e7bb7" stroke-width="1.51"/><path d="M926,621L1133,800L1280,625Z" fill="#559ecd" stroke="#559ecd" stroke-width="1.51"/><path d="M1026,454L926,621L1280,625Z" fill="#62a7d2" stroke="#62a7d2" stroke-width="1.51"/><path d="M1072,915L967,1039L1180,920Z" fill="#458bc4" stroke="#458bc4" stroke-width="1.51"/><path d="M1030,-292L1229,-117L1254,-249Z" fill="#a5c7e4" stroke="#a5c7e4" stroke-width="1.51"/><path d="M1030,-292L1025,-78L1229,-117Z" fill="#a5c9e5" stroke="#a5c9e5" stroke-width="1.51"/><path d="M1123,290L1026,454L1226,394Z" fill="#77b1d6" stroke="#77b1d6" stroke-width="1.51"/><path d="M1133,800L1072,915L1180,920Z" fill="#468fc5" stroke="#468fc5" stroke-width="1.51"/><path d="M1025,-78L925,6L1049,161Z" fill="#9ec6e3" stroke="#9ec6e3" stroke-width="1.51"/><path d="M933,270L1026,454L1123,290Z" fill="#80b8da" stroke="#80b8da" stroke-width="1.51"/><path d="M881,755L1072,915L1133,800Z" fill="#4f97c9" stroke="#4f97c9" stroke-width="1.51"/><path d="M926,621L881,755L1133,800Z" fill="#59a1ce" stroke="#59a1ce" stroke-width="1.51"/><path d="M1049,161L933,270L1123,290Z" fill="#8abcdd" stroke="#8abcdd" stroke-width="1.51"/><path d="M967,1039L863,1077L986,1310Z" fill="#4982bc" stroke="#4982bc" stroke-width="1.51"/><path d="M841,-178L1025,-78L1030,-292Z" fill="#accfe8" stroke="#accfe8" stroke-width="1.51"/><path d="M907,957L967,1039L1072,915Z" fill="#4a8ec5" stroke="#4a8ec5" stroke-width="1.51"/><path d="M881,755L907,957L1072,915Z" fill="#5197c9" stroke="#5197c9" stroke-width="1.51"/><path d="M848,123L933,270L1049,161Z" fill="#95c2e1" stroke="#95c2e1" stroke-width="1.51"/><path d="M925,6L848,123L1049,161Z" fill="#9dc6e4" stroke="#9dc6e4" stroke-width="1.51"/><path d="M767,-219L841,-178L1030,-292Z" fill="#b5d5eb" stroke="#b5d5eb" stroke-width="1.51"/><path d="M841,-178L925,6L1025,-78Z" fill="#a9cde7" stroke="#a9cde7" stroke-width="1.51"/><path d="M933,270L926,621L1026,454Z" fill="#77b4d9" stroke="#77b4d9" stroke-width="1.51"/><path d="M675,264L580,455L926,621Z" fill="#89bedd" stroke="#89bedd" stroke-width="1.51"/><path d="M675,264L926,621L933,270Z" fill="#88bddc" stroke="#88bddc" stroke-width="1.51"/><path d="M863,1077L797,1361L986,1310Z" fill="#4a7bb2" stroke="#4a7bb2" stroke-width="1.51"/><path d="M580,455L714,677L926,621Z" fill="#79b4d8" stroke="#79b4d8" stroke-width="1.51"/><path d="M907,957L863,1077L967,1039Z" fill="#4e8cc3" stroke="#4e8cc3" stroke-width="1.51"/><path d="M714,677L881,755L926,621Z" fill="#69a9d3" stroke="#69a9d3" stroke-width="1.51"/><path d="M848,123L746,148L933,270Z" fill="#9dc7e3" stroke="#9dc7e3" stroke-width="1.51"/><path d="M746,148L675,264L933,270Z" fill="#9cc7e2" stroke="#9cc7e2" stroke-width="1.51"/><path d="M881,755L599,888L907,957Z" fill="#619dcc" stroke="#619dcc" stroke-width="1.51"/><path d="M841,-178L630,8L925,6Z" fill="#b0d1e8" stroke="#b0d1e8" stroke-width="1.51"/><path d="M630,8L848,123L925,6Z" fill="#aacde6" stroke="#aacde6" stroke-width="1.51"/><path d="M599,888L863,1077L907,957Z" fill="#5b95c8" stroke="#5b95c8" stroke-width="1.51"/><path d="M596,1069L660,1376L797,1361Z" fill="#5b81b3" stroke="#5b81b3" stroke-width="1.51"/><path d="M630,8L746,148L848,123Z" fill="#abcee6" stroke="#abcee6" stroke-width="1.51"/><path d="M599,888L577,984L863,1077Z" fill="#6599c9" stroke="#6599c9" stroke-width="1.51"/><path d="M577,984L596,1069L863,1077Z" fill="#6394c6" stroke="#6394c6" stroke-width="1.51"/><path d="M596,1069L797,1361L863,1077Z" fill="#5887bd" stroke="#5887bd" stroke-width="1.51"/><path d="M714,677L599,888L881,755Z" fill="#6ba8d1" stroke="#6ba8d1" stroke-width="1.51"/><path d="M767,-219L630,8L841,-178Z" fill="#b8d6ea" stroke="#b8d6ea" stroke-width="1.51"/><path d="M596,1069L546,1122L660,1376Z" fill="#648bbe" stroke="#648bbe" stroke-width="1.51"/><path d="M479,-158L630,8L767,-219Z" fill="#c0dbec" stroke="#c0dbec" stroke-width="1.51"/><path d="M580,455L526,665L714,677Z" fill="#83b8da" stroke="#83b8da" stroke-width="1.51"/><path d="M630,8L675,264L746,148Z" fill="#accfe6" stroke="#accfe6" stroke-width="1.51"/><path d="M160,-180L293,-137L479,-158Z" fill="#d5e4f4" stroke="#d5e4f4" stroke-width="1.51"/><path d="M630,8L565,286L675,264Z" fill="#accfe5" stroke="#accfe5" stroke-width="1.51"/><path d="M565,286L580,455L675,264Z" fill="#9fcae2" stroke="#9fcae2" stroke-width="1.51"/><path d="M526,665L599,888L714,677Z" fill="#76afd5" stroke="#76afd5" stroke-width="1.51"/><path d="M479,12L565,286L630,8Z" fill="#b7d5e9" stroke="#b7d5e9" stroke-width="1.51"/><path d="M546,1122L412,1347L660,1376Z" fill="#6484b4" stroke="#6484b4" stroke-width="1.51"/><path d="M479,-158L479,12L630,8Z" fill="#c1dbed" stroke="#c1dbed" stroke-width="1.51"/><path d="M479,12L392,227L565,286Z" fill="#b6d4e9" stroke="#b6d4e9" stroke-width="1.51"/><path d="M526,665L385,775L599,888Z" fill="#7baed5" stroke="#7baed5" stroke-width="1.51"/><path d="M416,628L526,665L580,455Z" fill="#8abcdd" stroke="#8abcdd" stroke-width="1.51"/><path d="M577,984L546,1122L596,1069Z" fill="#6a96c7" stroke="#6a96c7" stroke-width="1.51"/><path d="M385,775L577,984L599,888Z" fill="#75a5d1" stroke="#75a5d1" stroke-width="1.51"/><path d="M565,286L392,227L580,455Z" fill="#a6cde3" stroke="#a6cde3" stroke-width="1.51"/><path d="M155,1249L-152,1349L412,1347Z" fill="#788ab7" stroke="#788ab7" stroke-width="1.51"/><path d="M385,775L272,872L577,984Z" fill="#7ca9d3" stroke="#7ca9d3" stroke-width="1.51"/><path d="M341,1104L546,1122L577,984Z" fill="#6f97c8" stroke="#6f97c8" stroke-width="1.51"/><path d="M248,372L416,628L580,455Z" fill="#9ac5e2" stroke="#9ac5e2" stroke-width="1.51"/><path d="M392,227L248,372L580,455Z" fill="#a9cee5" stroke="#a9cee5" stroke-width="1.51"/><path d="M272,872L341,1104L577,984Z" fill="#78a0cf" stroke="#78a0cf" stroke-width="1.51"/><path d="M341,1104L412,1347L546,1122Z" fill="#6f8ec1" stroke="#6f8ec1" stroke-width="1.51"/><path d="M416,628L385,775L526,665Z" fill="#86b6da" stroke="#86b6da" stroke-width="1.51"/><path d="M341,1104L248,1239L412,1347Z" fill="#738dbf" stroke="#738dbf" stroke-width="1.51"/><path d="M248,372L225,579L416,628Z" fill="#9dc5e3" stroke="#9dc5e3" stroke-width="1.51"/><path d="M289,-9L392,227L479,12Z" fill="#c3daed" stroke="#c3daed" stroke-width="1.51"/><path d="M293,-137L289,-9L479,12Z" fill="#ccdff1" stroke="#ccdff1" stroke-width="1.51"/><path d="M293,-137L479,12L479,-158Z" fill="#cbdff0" stroke="#cbdff0" stroke-width="1.51"/><path d="M289,-9L210,67L392,227Z" fill="#c7dbef" stroke="#c7dbef" stroke-width="1.51"/><path d="M248,1239L155,1249L412,1347Z" fill="#758bba" stroke="#758bba" stroke-width="1.51"/><path d="M225,579L385,775L416,628Z" fill="#8ebbdd" stroke="#8ebbdd" stroke-width="1.51"/><path d="M225,579L272,872L385,775Z" fill="#8bb7db" stroke="#8bb7db" stroke-width="1.51"/><path d="M136,233L248,372L392,227Z" fill="#b8d5ea" stroke="#b8d5ea" stroke-width="1.51"/><path d="M210,67L136,233L392,227Z" fill="#c2d9ed" stroke="#c2d9ed" stroke-width="1.51"/><path d="M225,579L192,574L272,872Z" fill="#93bcdf" stroke="#93bcdf" stroke-width="1.51"/><path d="M192,574L22,735L272,872Z" fill="#92badd" stroke="#92badd" stroke-width="1.51"/><path d="M272,872L107,1160L341,1104Z" fill="#7f9fce" stroke="#7f9fce" stroke-width="1.51"/><path d="M107,1160L248,1239L341,1104Z" fill="#7b95c7" stroke="#7b95c7" stroke-width="1.51"/><path d="M192,574L225,579L248,372Z" fill="#a1c8e5" stroke="#a1c8e5" stroke-width="1.51"/><path d="M10,932L107,1160L272,872Z" fill="#85a6d3" stroke="#85a6d3" stroke-width="1.51"/><path d="M151,-54L289,-9L293,-137Z" fill="#d2e2f3" stroke="#d2e2f3" stroke-width="1.51"/><path d="M160,-180L151,-54L293,-137Z" fill="#d7e6f5" stroke="#d7e6f5" stroke-width="1.51"/><path d="M151,-54L210,67L289,-9Z" fill="#d0e1f2" stroke="#d0e1f2" stroke-width="1.51"/><path d="M107,1160L155,1249L248,1239Z" fill="#7b92c3" stroke="#7b92c3" stroke-width="1.51"/><path d="M22,735L10,932L272,872Z" fill="#8db3da" stroke="#8db3da" stroke-width="1.51"/><path d="M136,233L41,337L248,372Z" fill="#b9d6ea" stroke="#b9d6ea" stroke-width="1.51"/><path d="M1,485L192,574L248,372Z" fill="#a8cce6" stroke="#a8cce6" stroke-width="1.51"/><path d="M41,337L1,485L248,372Z" fill="#b2d3e8" stroke="#b2d3e8" stroke-width="1.51"/><path d="M151,-54L-30,110L210,67Z" fill="#d1e2f3" stroke="#d1e2f3" stroke-width="1.51"/><path d="M-30,110L136,233L210,67Z" fill="#cbdef0" stroke="#cbdef0" stroke-width="1.51"/><path d="M1,485L22,735L192,574Z" fill="#9fc6e3" stroke="#9fc6e3" stroke-width="1.51"/><path d="M-51,63L-30,110L151,-54Z" fill="#d4e4f4" stroke="#d4e4f4" stroke-width="1.51"/><path d="M-148,-254L-51,63L151,-54Z" fill="#dceaf6" stroke="#dceaf6" stroke-width="1.51"/><path d="M-148,-254L151,-54L160,-180Z" fill="#deebf7" stroke="#deebf7" stroke-width="1.51"/><path d="M107,1160L-152,1349L155,1249Z" fill="#7f92bf" stroke="#7f92bf" stroke-width="1.51"/><path d="M-134,1149L-152,1349L107,1160Z" fill="#8497c5" stroke="#8497c5" stroke-width="1.51"/><path d="M-30,110L41,337L136,233Z" fill="#c5dcee" stroke="#c5dcee" stroke-width="1.51"/><path d="M10,932L-134,1149L107,1160Z" fill="#87a1cf" stroke="#87a1cf" stroke-width="1.51"/><path d="M-183,1201L-152,1349L-134,1149Z" fill="#8798c5" stroke="#8798c5" stroke-width="1.51"/><path d="M-148,-254L-241,-173L-51,63Z" fill="#e3eef9" stroke="#e3eef9" stroke-width="1.51"/><path d="M-254,234L-72,399L-30,110Z" fill="#c9dfef" stroke="#c9dfef" stroke-width="1.51"/><path d="M1,485L-198,570L22,735Z" fill="#a4c8e5" stroke="#a4c8e5" stroke-width="1.51"/><path d="M-198,570L-170,773L22,735Z" fill="#9fc4e2" stroke="#9fc4e2" stroke-width="1.51"/><path d="M-112,831L10,932L22,735Z" fill="#93b7dc" stroke="#93b7dc" stroke-width="1.51"/><path d="M-72,399L1,485L41,337Z" fill="#b5d4e9" stroke="#b5d4e9" stroke-width="1.51"/><path d="M-30,110L-72,399L41,337Z" fill="#c2dced" stroke="#c2dced" stroke-width="1.51"/><path d="M-170,773L-112,831L22,735Z" fill="#98bcde" stroke="#98bcde" stroke-width="1.51"/><path d="M-112,831L-134,1149L10,932Z" fill="#8eadd7" stroke="#8eadd7" stroke-width="1.51"/><path d="M-72,399L-198,570L1,485Z" fill="#b0d1e9" stroke="#b0d1e9" stroke-width="1.51"/><path d="M-345,920L-134,1149L-112,831Z" fill="#93afd8" stroke="#93afd8" stroke-width="1.51"/><path d="M-241,-173L-316,-55L-51,63Z" fill="#e2edf8" stroke="#e2edf8" stroke-width="1.51"/><path d="M-51,63L-254,234L-30,110Z" fill="#d3e4f3" stroke="#d3e4f3" stroke-width="1.51"/><path d="M-219,807L-345,920L-112,831Z" fill="#9abadd" stroke="#9abadd" stroke-width="1.51"/><path d="M-316,-55L-254,234L-51,63Z" fill="#dbe8f6" stroke="#dbe8f6" stroke-width="1.51"/><path d="M-356,353L-198,570L-72,399Z" fill="#b9d7eb" stroke="#b9d7eb" stroke-width="1.51"/><path d="M-254,234L-356,353L-72,399Z" fill="#c5dfee" stroke="#c5dfee" stroke-width="1.51"/><path d="M-345,920L-290,1212L-134,1149Z" fill="#90a6d1" stroke="#90a6d1" stroke-width="1.51"/><path d="M-170,773L-219,807L-112,831Z" fill="#9abcde" stroke="#9abcde" stroke-width="1.51"/><path d="M-183,1201L-290,1212L-152,1349Z" fill="#8897c2" stroke="#8897c2" stroke-width="1.51"/><path d="M-290,1212L-183,1201L-134,1149Z" fill="#8b9dcb" stroke="#8b9dcb" stroke-width="1.51"/><path d="M-198,570L-219,807L-170,773Z" fill="#a0c4e2" stroke="#a0c4e2" stroke-width="1.51"/><path d="M-345,920L-219,807L-198,570Z" fill="#9fc1e1" stroke="#9fc1e1" stroke-width="1.51"/><path d="M-356,353L-345,920L-198,570Z" fill="#accde7" stroke="#accde7" stroke-width="1.51"/><path d="M-316,-55L-356,353L-254,234Z" fill="#d6e7f4" stroke="#d6e7f4" stroke-width="1.51"/></svg>